<?xml version="1.0" encoding="UTF-8"?>
<!DOCTYPE svg PUBLIC "-//W3C//DTD SVG 1.1//EN" "http://www.w3.org/Graphics/SVG/1.1/DTD/svg11.dtd">
<svg xmlns="http://www.w3.org/2000/svg" version="1.1" width="500px" height="440px" style="shape-rendering:geometricPrecision; text-rendering:geometricPrecision; image-rendering:optimizeQuality; fill-rule:evenodd; clip-rule:evenodd" xmlns:xlink="http://www.w3.org/1999/xlink">
<g><path style="opacity:0.39" fill="#e6e9ee" d="M 46.5,15.5 C 46.5,15.1667 46.5,14.8333 46.5,14.5C 145.5,14.5 244.5,14.5 343.5,14.5C 343.5,41.1667 343.5,67.8333 343.5,94.5C 343.167,94.5 342.833,94.5 342.5,94.5C 342.5,68.1667 342.5,41.8333 342.5,15.5C 243.833,15.5 145.167,15.5 46.5,15.5 Z"/></g>
<g><path style="opacity:0.986" fill="#747d96" d="M 46.5,15.5 C 145.167,15.5 243.833,15.5 342.5,15.5C 342.5,41.8333 342.5,68.1667 342.5,94.5C 306.5,94.5 270.5,94.5 234.5,94.5C 235.105,92.9743 236.271,91.9743 238,91.5C 272.228,92.6341 306.395,92.8008 340.5,92C 341.495,66.9079 341.828,41.7412 341.5,16.5C 243.5,16.5 145.5,16.5 47.5,16.5C 47.5,41.8333 47.5,67.1667 47.5,92.5C 81.1845,92.8127 114.851,92.4794 148.5,91.5C 151.131,91.7823 153.631,92.4489 156,93.5C 156.167,165.668 156.667,237.668 157.5,309.5C 157.5,309.833 157.5,310.167 157.5,310.5C 156.833,310.5 156.167,310.5 155.5,310.5C 155.5,238.5 155.5,166.5 155.5,94.5C 119.167,94.5 82.8333,94.5 46.5,94.5C 46.5,68.1667 46.5,41.8333 46.5,15.5 Z"/></g>
<g><path style="opacity:1" fill="#637295" d="M 234.5,94.5 C 234.167,94.5 233.833,94.5 233.5,94.5C 232.665,165.096 232.165,236.43 232,308.5C 207.241,309.494 182.408,309.828 157.5,309.5C 156.667,237.668 156.167,165.668 156,93.5C 153.631,92.4489 151.131,91.7823 148.5,91.5C 114.851,92.4794 81.1845,92.8127 47.5,92.5C 47.5,67.1667 47.5,41.8333 47.5,16.5C 145.5,16.5 243.5,16.5 341.5,16.5C 341.828,41.7412 341.495,66.9079 340.5,92C 306.395,92.8008 272.228,92.6341 238,91.5C 236.271,91.9743 235.105,92.9743 234.5,94.5 Z"/></g>
<g><path style="opacity:0.04" fill="#e7e9ee" d="M 46.5,14.5 C 46.5,14.8333 46.5,15.1667 46.5,15.5C 46.5,41.8333 46.5,68.1667 46.5,94.5C 82.8333,94.5 119.167,94.5 155.5,94.5C 155.5,166.5 155.5,238.5 155.5,310.5C 155.167,310.5 154.833,310.5 154.5,310.5C 154.5,238.833 154.5,167.167 154.5,95.5C 118.167,95.5 81.8333,95.5 45.5,95.5C 45.1688,68.3282 45.5021,41.3282 46.5,14.5 Z"/></g>
<g><path style="opacity:0.062" fill="#ebecf0" d="M 233.5,94.5 C 233.833,94.5 234.167,94.5 234.5,94.5C 270.5,94.5 306.5,94.5 342.5,94.5C 342.833,94.5 343.167,94.5 343.5,94.5C 307.671,95.4984 271.671,95.8318 235.5,95.5C 235.667,167.501 235.5,239.501 235,311.5C 221.573,312.162 208.073,312.496 194.5,312.5C 180.816,312.499 167.483,311.833 154.5,310.5C 154.833,310.5 155.167,310.5 155.5,310.5C 156.167,310.5 156.833,310.5 157.5,310.5C 182.833,310.5 208.167,310.5 233.5,310.5C 233.5,238.5 233.5,166.5 233.5,94.5 Z"/></g>
<g><path style="opacity:0.17" fill="#fdf9fb" d="M 263.5,123.5 C 263.5,195.833 263.5,268.167 263.5,340.5C 227.5,340.5 191.5,340.5 155.5,340.5C 155.167,340.5 154.833,340.5 154.5,340.5C 190.329,339.502 226.329,339.168 262.5,339.5C 262.167,267.331 262.501,195.331 263.5,123.5 Z"/></g>
<g><path style="opacity:1" fill="#9e496e" d="M 266.5,124.5 C 268.5,124.5 270.5,124.5 272.5,124.5C 294.706,125.177 317.039,125.843 339.5,126.5C 340.667,196.498 340.833,266.498 340,336.5C 334.163,338.059 334.33,339.559 340.5,341C 377.165,341.5 413.832,341.667 450.5,341.5C 450.5,367.167 450.5,392.833 450.5,418.5C 354.167,418.5 257.833,418.5 161.5,418.5C 160.122,417.766 158.622,417.099 157,416.5C 156.5,391.836 156.333,367.169 156.5,342.5C 190.502,342.333 224.502,342.5 258.5,343C 260.817,344.713 262.817,344.213 264.5,341.5C 265.318,339.892 265.985,338.225 266.5,336.5C 265.17,265.833 265.17,195.167 266.5,124.5 Z"/></g>
<g><path style="opacity:0.386" fill="#f7eaf0" d="M 263.5,123.5 C 289.995,122.502 316.661,122.169 343.5,122.5C 343.5,194.833 343.5,267.167 343.5,339.5C 379.671,339.168 415.671,339.502 451.5,340.5C 451.167,340.5 450.833,340.5 450.5,340.5C 414.5,340.5 378.5,340.5 342.5,340.5C 342.5,268.5 342.5,196.5 342.5,124.5C 316.339,123.502 290.005,123.169 263.5,123.5 Z"/></g>
<g><path style="opacity:1" fill="#9a5370" d="M 272.5,124.5 C 295.833,124.5 319.167,124.5 342.5,124.5C 342.5,196.5 342.5,268.5 342.5,340.5C 378.5,340.5 414.5,340.5 450.5,340.5C 450.5,340.833 450.5,341.167 450.5,341.5C 413.832,341.667 377.165,341.5 340.5,341C 334.33,339.559 334.163,338.059 340,336.5C 340.833,266.498 340.667,196.498 339.5,126.5C 317.039,125.843 294.706,125.177 272.5,124.5 Z"/></g>
<g><path style="opacity:0.988" fill="#616a86" d="M 233.5,94.5 C 233.5,166.5 233.5,238.5 233.5,310.5C 208.167,310.5 182.833,310.5 157.5,310.5C 157.5,310.167 157.5,309.833 157.5,309.5C 182.408,309.828 207.241,309.494 232,308.5C 232.165,236.43 232.665,165.096 233.5,94.5 Z"/></g>
<g><path style="opacity:0.812" fill="#b48298" d="M 263.5,123.5 C 290.005,123.169 316.339,123.502 342.5,124.5C 319.167,124.5 295.833,124.5 272.5,124.5C 270.5,124.5 268.5,124.5 266.5,124.5C 264.834,196.328 263.834,268.328 263.5,340.5C 263.5,268.167 263.5,195.833 263.5,123.5 Z"/></g>
<g><path style="opacity:1" fill="#964e6c" d="M 266.5,124.5 C 265.17,195.167 265.17,265.833 266.5,336.5C 265.985,338.225 265.318,339.892 264.5,341.5C 262.817,344.213 260.817,344.713 258.5,343C 224.502,342.5 190.502,342.333 156.5,342.5C 156.333,367.169 156.5,391.836 157,416.5C 158.622,417.099 160.122,417.766 161.5,418.5C 159.5,418.5 157.5,418.5 155.5,418.5C 155.5,392.5 155.5,366.5 155.5,340.5C 191.5,340.5 227.5,340.5 263.5,340.5C 263.834,268.328 264.834,196.328 266.5,124.5 Z"/></g>
<g><path style="opacity:0.195" fill="#f7eff3" d="M 154.5,340.5 C 154.833,340.5 155.167,340.5 155.5,340.5C 155.5,366.5 155.5,392.5 155.5,418.5C 253.999,419.499 352.665,419.833 451.5,419.5C 451.5,393.167 451.5,366.833 451.5,340.5C 452.498,366.995 452.831,393.661 452.5,420.5C 353.167,420.5 253.833,420.5 154.5,420.5C 154.5,393.833 154.5,367.167 154.5,340.5 Z"/></g>
<g><path style="opacity:0.973" fill="#a26780" d="M 450.5,340.5 C 450.833,340.5 451.167,340.5 451.5,340.5C 451.5,366.833 451.5,393.167 451.5,419.5C 352.665,419.833 253.999,419.499 155.5,418.5C 157.5,418.5 159.5,418.5 161.5,418.5C 257.833,418.5 354.167,418.5 450.5,418.5C 450.5,392.833 450.5,367.167 450.5,341.5C 450.5,341.167 450.5,340.833 450.5,340.5 Z"/></g>
<g><path style="opacity:0.051" fill="#fefeff" d="M 94.5,439.5 C 103.833,438.167 113.167,438.167 122.5,439.5C 113.167,439.5 103.833,439.5 94.5,439.5 Z"/></g>
<g><path style="opacity:0.05" fill="#fffefe" d="M 254.5,439.5 C 263.5,438.167 272.5,438.167 281.5,439.5C 272.5,439.5 263.5,439.5 254.5,439.5 Z"/></g>
<g><path style="opacity:0.041" fill="#fffeff" d="M 375.5,439.5 C 377.167,438.167 378.833,438.167 380.5,439.5C 378.833,439.5 377.167,439.5 375.5,439.5 Z"/></g>
</svg>
